%TF.GenerationSoftware,KiCad,Pcbnew,9.0.2*%
%TF.CreationDate,2025-05-11T09:58:07+02:00*%
%TF.ProjectId,USB_Tester,5553425f-5465-4737-9465-722e6b696361,rev?*%
%TF.SameCoordinates,PX6516e80PY5a995c0*%
%TF.FileFunction,Legend,Top*%
%TF.FilePolarity,Positive*%
%FSLAX46Y46*%
G04 Gerber Fmt 4.6, Leading zero omitted, Abs format (unit mm)*
G04 Created by KiCad (PCBNEW 9.0.2) date 2025-05-11 09:58:07*
%MOMM*%
%LPD*%
G01*
G04 APERTURE LIST*
%ADD10C,0.150000*%
%ADD11C,0.120000*%
G04 APERTURE END LIST*
D10*
X19756905Y9375181D02*
X19756905Y10375181D01*
X19756905Y10375181D02*
X19995000Y10375181D01*
X19995000Y10375181D02*
X20137857Y10327562D01*
X20137857Y10327562D02*
X20233095Y10232324D01*
X20233095Y10232324D02*
X20280714Y10137086D01*
X20280714Y10137086D02*
X20328333Y9946610D01*
X20328333Y9946610D02*
X20328333Y9803753D01*
X20328333Y9803753D02*
X20280714Y9613277D01*
X20280714Y9613277D02*
X20233095Y9518039D01*
X20233095Y9518039D02*
X20137857Y9422800D01*
X20137857Y9422800D02*
X19995000Y9375181D01*
X19995000Y9375181D02*
X19756905Y9375181D01*
X21280714Y9375181D02*
X20709286Y9375181D01*
X20995000Y9375181D02*
X20995000Y10375181D01*
X20995000Y10375181D02*
X20899762Y10232324D01*
X20899762Y10232324D02*
X20804524Y10137086D01*
X20804524Y10137086D02*
X20709286Y10089467D01*
X20283333Y5375181D02*
X19950000Y5851372D01*
X19711905Y5375181D02*
X19711905Y6375181D01*
X19711905Y6375181D02*
X20092857Y6375181D01*
X20092857Y6375181D02*
X20188095Y6327562D01*
X20188095Y6327562D02*
X20235714Y6279943D01*
X20235714Y6279943D02*
X20283333Y6184705D01*
X20283333Y6184705D02*
X20283333Y6041848D01*
X20283333Y6041848D02*
X20235714Y5946610D01*
X20235714Y5946610D02*
X20188095Y5898991D01*
X20188095Y5898991D02*
X20092857Y5851372D01*
X20092857Y5851372D02*
X19711905Y5851372D01*
X21235714Y5375181D02*
X20664286Y5375181D01*
X20950000Y5375181D02*
X20950000Y6375181D01*
X20950000Y6375181D02*
X20854762Y6232324D01*
X20854762Y6232324D02*
X20759524Y6137086D01*
X20759524Y6137086D02*
X20664286Y6089467D01*
X11196666Y9925181D02*
X11196666Y9210896D01*
X11196666Y9210896D02*
X11149047Y9068039D01*
X11149047Y9068039D02*
X11053809Y8972800D01*
X11053809Y8972800D02*
X10910952Y8925181D01*
X10910952Y8925181D02*
X10815714Y8925181D01*
X12196666Y8925181D02*
X11625238Y8925181D01*
X11910952Y8925181D02*
X11910952Y9925181D01*
X11910952Y9925181D02*
X11815714Y9782324D01*
X11815714Y9782324D02*
X11720476Y9687086D01*
X11720476Y9687086D02*
X11625238Y9639467D01*
D11*
%TO.C,D1*%
X18035000Y9135000D02*
X18035000Y6865000D01*
X18035000Y6865000D02*
X22095000Y6865000D01*
X22095000Y9135000D02*
X18035000Y9135000D01*
%TO.C,R1*%
X19722936Y4910000D02*
X21177064Y4910000D01*
X19722936Y3090000D02*
X21177064Y3090000D01*
%TD*%
M02*
